<svg version="1.1" xmlns="http://www.w3.org/2000/svg" viewBox="0 0 2893.2157534644716 1209.2747884452497" width="2893.2157534644716" height="1209.2747884452497">
  <!-- svg-source:excalidraw -->
  
  <defs>
    <style class="style-fonts">
      @font-face {
        font-family: "Virgil";
        src: url("https://file%2B.vscode-resource.vscode-cdn.net/c%3A/Users/Admin/.vscode-oss/extensions/pomdtr.excalidraw-editor-3.7.4-universal/public//dist/excalidraw-assets/Virgil.woff2");
      }
      @font-face {
        font-family: "Cascadia";
        src: url("https://file%2B.vscode-resource.vscode-cdn.net/c%3A/Users/Admin/.vscode-oss/extensions/pomdtr.excalidraw-editor-3.7.4-universal/public//dist/excalidraw-assets/Cascadia.woff2");
      }
      @font-face {
        font-family: "Assistant";
        src: url("https://file%2B.vscode-resource.vscode-cdn.net/c%3A/Users/Admin/.vscode-oss/extensions/pomdtr.excalidraw-editor-3.7.4-universal/public//dist/excalidraw-assets/Assistant-Regular.woff2");
      }
    </style>
    
  </defs>
  <rect x="0" y="0" width="2893.2157534644716" height="1209.2747884452497" fill="#ffffff"></rect><g stroke-linecap="round" transform="translate(2024.6315396022085 288.06053610200115) rotate(357.940506369934 180.57860942059244 452.50852986529253)"><path d="M32 0 C114.87 1.59, 195.83 0.08, 329.16 0 M32 0 C148.24 2.11, 265.3 2.08, 329.16 0 M329.16 0 C349.59 1.03, 362.09 9.02, 361.16 32 M329.16 0 C351.12 -0.7, 361.1 10.25, 361.16 32 M361.16 32 C363.15 229.96, 362.7 427, 361.16 873.02 M361.16 32 C358.5 317.83, 358.49 603.37, 361.16 873.02 M361.16 873.02 C360.96 894.38, 348.72 904.29, 329.16 905.02 M361.16 873.02 C362.51 895.67, 349.92 903.79, 329.16 905.02 M329.16 905.02 C265.11 903.91, 198.63 904.04, 32 905.02 M329.16 905.02 C263.16 904.84, 196.05 903.87, 32 905.02 M32 905.02 C12.36 903.27, 1.42 895.76, 0 873.02 M32 905.02 C9.56 905.46, -1.75 896.63, 0 873.02 M0 873.02 C-3.83 671.87, -2.53 471.71, 0 32 M0 873.02 C-2.42 615.89, -2.62 358.85, 0 32 M0 32 C1.82 11.35, 8.78 0.85, 32 0 M0 32 C-1.14 12.43, 12.76 -1.37, 32 0" stroke="#1e1e1e" stroke-width="2" fill="none"></path></g><g stroke-linecap="round" transform="translate(10 132.03176298595508) rotate(0 346.3333333333332 460.5)"><path d="M32 0 C216.95 1.11, 400.25 2.21, 660.67 0 M32 0 C280.89 -0.52, 529.95 -0.5, 660.67 0 M660.67 0 C681.54 -1.84, 694.55 10.03, 692.67 32 M660.67 0 C681.58 -0.89, 693.69 11.43, 692.67 32 M692.67 32 C692.62 301.02, 693.25 571.1, 692.67 889 M692.67 32 C692.31 260.86, 692 489.95, 692.67 889 M692.67 889 C691.24 908.73, 681.51 921.37, 660.67 921 M692.67 889 C693.39 908.5, 684.15 918.91, 660.67 921 M660.67 921 C519.26 920.4, 379.17 920.81, 32 921 M660.67 921 C436.43 921.19, 211.59 921.11, 32 921 M32 921 C10.17 919.09, -0.91 911.33, 0 889 M32 921 C9.8 919.42, 0.01 909.37, 0 889 M0 889 C1.78 568.34, 2.38 246.77, 0 32 M0 889 C-1.08 580.76, -0.6 272.3, 0 32 M0 32 C-0.84 9.64, 9.67 -0.94, 32 0 M0 32 C-2.12 9.55, 11.86 1.56, 32 0" stroke="#1e1e1e" stroke-width="2" fill="none"></path></g><g transform="translate(15 192.53176298595508) rotate(0 333.65972900390625 400)"><text x="0" y="0" font-family="Virgil, Segoe UI Emoji" font-size="20px" fill="#1e1e1e" text-anchor="start" style="white-space: pre;" direction="ltr" dominant-baseline="text-before-edge">    :</text><text x="0" y="25" font-family="Virgil, Segoe UI Emoji" font-size="20px" fill="#1e1e1e" text-anchor="start" style="white-space: pre;" direction="ltr" dominant-baseline="text-before-edge">    :</text><text x="0" y="50" font-family="Virgil, Segoe UI Emoji" font-size="20px" fill="#1e1e1e" text-anchor="start" style="white-space: pre;" direction="ltr" dominant-baseline="text-before-edge">    Reviewed Surgical History</text><text x="0" y="75" font-family="Virgil, Segoe UI Emoji" font-size="20px" fill="#1e1e1e" text-anchor="start" style="white-space: pre;" direction="ltr" dominant-baseline="text-before-edge">    Past Medical History</text><text x="0" y="100" font-family="Virgil, Segoe UI Emoji" font-size="20px" fill="#1e1e1e" text-anchor="start" style="white-space: pre;" direction="ltr" dominant-baseline="text-before-edge">    Reviewed Past Medical History</text><text x="0" y="125" font-family="Virgil, Segoe UI Emoji" font-size="20px" fill="#1e1e1e" text-anchor="start" style="white-space: pre;" direction="ltr" dominant-baseline="text-before-edge">    Screening</text><text x="0" y="150" font-family="Virgil, Segoe UI Emoji" font-size="20px" fill="#1e1e1e" text-anchor="start" style="white-space: pre;" direction="ltr" dominant-baseline="text-before-edge">    None recorded.</text><text x="0" y="175" font-family="Virgil, Segoe UI Emoji" font-size="20px" fill="#1e1e1e" text-anchor="start" style="white-space: pre;" direction="ltr" dominant-baseline="text-before-edge">    ROS</text><text x="0" y="200" font-family="Virgil, Segoe UI Emoji" font-size="20px" fill="#1e1e1e" text-anchor="start" style="white-space: pre;" direction="ltr" dominant-baseline="text-before-edge">    ROS as noted in the HPI</text><text x="0" y="225" font-family="Virgil, Segoe UI Emoji" font-size="20px" fill="#1e1e1e" text-anchor="start" style="white-space: pre;" direction="ltr" dominant-baseline="text-before-edge">    Physical Exam</text><text x="0" y="250" font-family="Virgil, Segoe UI Emoji" font-size="20px" fill="#1e1e1e" text-anchor="start" style="white-space: pre;" direction="ltr" dominant-baseline="text-before-edge">    None recorded.</text><text x="0" y="275" font-family="Virgil, Segoe UI Emoji" font-size="20px" fill="#1e1e1e" text-anchor="start" style="white-space: pre;" direction="ltr" dominant-baseline="text-before-edge">    Assessment / Plan</text><text x="0" y="300" font-family="Virgil, Segoe UI Emoji" font-size="20px" fill="#1e1e1e" text-anchor="start" style="white-space: pre;" direction="ltr" dominant-baseline="text-before-edge">    </text><text x="0" y="325" font-family="Virgil, Segoe UI Emoji" font-size="20px" fill="#1e1e1e" text-anchor="start" style="white-space: pre;" direction="ltr" dominant-baseline="text-before-edge">    1. Gastroesophageal reflux disease -</text><text x="0" y="350" font-family="Virgil, Segoe UI Emoji" font-size="20px" fill="#1e1e1e" text-anchor="start" style="white-space: pre;" direction="ltr" dominant-baseline="text-before-edge">       Stable</text><text x="0" y="375" font-family="Virgil, Segoe UI Emoji" font-size="20px" fill="#1e1e1e" text-anchor="start" style="white-space: pre;" direction="ltr" dominant-baseline="text-before-edge">       Continue the antacids</text><text x="0" y="400" font-family="Virgil, Segoe UI Emoji" font-size="20px" fill="#1e1e1e" text-anchor="start" style="white-space: pre;" direction="ltr" dominant-baseline="text-before-edge">       F/U in 3 months</text><text x="0" y="425" font-family="Virgil, Segoe UI Emoji" font-size="20px" fill="#1e1e1e" text-anchor="start" style="white-space: pre;" direction="ltr" dominant-baseline="text-before-edge">       K21.9: Gastro-esophageal reflux disease without esophagitis</text><text x="0" y="450" font-family="Virgil, Segoe UI Emoji" font-size="20px" fill="#1e1e1e" text-anchor="start" style="white-space: pre;" direction="ltr" dominant-baseline="text-before-edge">    </text><text x="0" y="475" font-family="Virgil, Segoe UI Emoji" font-size="20px" fill="#1e1e1e" text-anchor="start" style="white-space: pre;" direction="ltr" dominant-baseline="text-before-edge">    2. Hyperglycemia due to type 2 diabetes mellitus -</text><text x="0" y="500" font-family="Virgil, Segoe UI Emoji" font-size="20px" fill="#1e1e1e" text-anchor="start" style="white-space: pre;" direction="ltr" dominant-baseline="text-before-edge">       Worsening</text><text x="0" y="525" font-family="Virgil, Segoe UI Emoji" font-size="20px" fill="#1e1e1e" text-anchor="start" style="white-space: pre;" direction="ltr" dominant-baseline="text-before-edge">       Continue Metformin1000 mg BID and Glimepiride 8 mg</text><text x="0" y="550" font-family="Virgil, Segoe UI Emoji" font-size="20px" fill="#1e1e1e" text-anchor="start" style="white-space: pre;" direction="ltr" dominant-baseline="text-before-edge">       Recommend a low sugar and low carbohydrate diet. Fruits</text><text x="0" y="575" font-family="Virgil, Segoe UI Emoji" font-size="20px" fill="#1e1e1e" text-anchor="start" style="white-space: pre;" direction="ltr" dominant-baseline="text-before-edge">       and vegetables are acceptable.</text><text x="0" y="600" font-family="Virgil, Segoe UI Emoji" font-size="20px" fill="#1e1e1e" text-anchor="start" style="white-space: pre;" direction="ltr" dominant-baseline="text-before-edge">       Discussed 1/2 plate with non-starchy vegetables, 1/4 of</text><text x="0" y="625" font-family="Virgil, Segoe UI Emoji" font-size="20px" fill="#1e1e1e" text-anchor="start" style="white-space: pre;" direction="ltr" dominant-baseline="text-before-edge">       plate with carbohydrates such as whole grain, 1/4 of plate</text><text x="0" y="650" font-family="Virgil, Segoe UI Emoji" font-size="20px" fill="#1e1e1e" text-anchor="start" style="white-space: pre;" direction="ltr" dominant-baseline="text-before-edge">       with lean protein.</text><text x="0" y="675" font-family="Virgil, Segoe UI Emoji" font-size="20px" fill="#1e1e1e" text-anchor="start" style="white-space: pre;" direction="ltr" dominant-baseline="text-before-edge">    </text><text x="0" y="700" font-family="Virgil, Segoe UI Emoji" font-size="20px" fill="#1e1e1e" text-anchor="start" style="white-space: pre;" direction="ltr" dominant-baseline="text-before-edge">    Return to Office</text><text x="0" y="725" font-family="Virgil, Segoe UI Emoji" font-size="20px" fill="#1e1e1e" text-anchor="start" style="white-space: pre;" direction="ltr" dominant-baseline="text-before-edge">    Patient will return to the office as needed.</text><text x="0" y="750" font-family="Virgil, Segoe UI Emoji" font-size="20px" fill="#1e1e1e" text-anchor="start" style="white-space: pre;" direction="ltr" dominant-baseline="text-before-edge">    Encounter Sign-Off</text><text x="0" y="775" font-family="Virgil, Segoe UI Emoji" font-size="20px" fill="#1e1e1e" text-anchor="start" style="white-space: pre;" direction="ltr" dominant-baseline="text-before-edge">    Encounter not closed."</text></g><g stroke-linecap="round" transform="translate(42.4761904761898 509.99999999999955) rotate(0 320.99999999999994 181)"><path d="M32 0 C213.33 -2.35, 394.38 -2.35, 610 0 M610 0 C631.75 1.25, 640.5 9.83, 642 32 M642 32 C643.93 129.71, 644.85 225.85, 642 330 M642 330 C641.65 350.58, 630.75 362.5, 610 362 M610 362 C476.67 364.02, 345.16 364.57, 32 362 M32 362 C9.29 363.52, 0.95 352.23, 0 330 M0 330 C-1.22 254.19, -2.16 180.65, 0 32 M0 32 C-0.84 12.19, 10.4 -1.66, 32 0" stroke="#1e1e1e" stroke-width="2.5" fill="none" stroke-dasharray="8 10"></path></g><g stroke-linecap="round" transform="translate(986.4761904761901 431.99999999999864) rotate(0 341.9999999999999 255)"><path d="M7.86 8.16 C7.86 8.16, 7.86 8.16, 7.86 8.16 M7.86 8.16 C7.86 8.16, 7.86 8.16, 7.86 8.16 M1.43 27.75 C10.53 20.91, 17.28 11.84, 24.4 1.33 M1.43 27.75 C6.22 22.84, 10.74 17.44, 24.4 1.33 M0.26 41.3 C7.83 32.25, 14.67 24.04, 36.34 -0.21 M0.26 41.3 C13.99 25.9, 26.32 12.77, 36.34 -0.21 M0.39 53.34 C11.1 39.89, 23.14 28.6, 46.97 -0.25 M0.39 53.34 C16.3 33.9, 34.26 14.55, 46.97 -0.25 M0.52 65.38 C15.73 47.64, 31.68 32.98, 57.6 -0.28 M0.52 65.38 C21.07 41.85, 42.45 19.83, 57.6 -0.28 M0 78.17 C21.25 50.81, 44.94 27.76, 67.57 0.44 M0 78.17 C24.79 48.96, 49.52 22.06, 67.57 0.44 M0.13 90.22 C23.25 64.14, 41.07 39.97, 78.2 0.41 M0.13 90.22 C23.35 64.05, 44.85 38.14, 78.2 0.41 M0.26 102.26 C21.01 80.14, 39.06 57.71, 88.83 0.37 M0.26 102.26 C30.22 65.77, 63.59 29.18, 88.83 0.37 M0.4 114.3 C31.15 78.3, 66.1 41.07, 99.46 0.34 M0.4 114.3 C29.48 81.58, 57.55 50.89, 99.46 0.34 M0.53 126.34 C43.73 77.33, 87.17 28.81, 110.09 0.3 M0.53 126.34 C36.38 85.21, 71.32 44.65, 110.09 0.3 M0.01 139.13 C45.44 89.18, 88.78 38.95, 120.72 0.27 M0.01 139.13 C34.91 100.62, 69.21 61.74, 120.72 0.27 M0.14 151.17 C40.73 101.62, 83.32 55.35, 131.35 0.23 M0.14 151.17 C38.42 105.16, 79.01 59.07, 131.35 0.23 M0.27 163.22 C51.34 101.13, 106.43 40.97, 141.98 0.2 M0.27 163.22 C42.88 112.75, 86.52 62.84, 141.98 0.2 M0.41 175.26 C55.31 109.78, 112.4 42.74, 152.61 0.16 M0.41 175.26 C57.65 107.44, 116.98 39.55, 152.61 0.16 M0.54 187.3 C62.49 114.01, 127.65 43.06, 163.24 0.13 M0.54 187.3 C38.52 143.46, 76.98 98.76, 163.24 0.13 M0.02 200.09 C65.01 127.48, 127.33 54.82, 173.87 0.09 M0.02 200.09 C57.81 131.08, 116.82 63.15, 173.87 0.09 M0.15 212.13 C49.47 155.17, 99.57 96.23, 184.5 0.06 M0.15 212.13 C36.76 167.01, 74.13 124.4, 184.5 0.06 M0.28 224.17 C62.29 152.21, 125.07 79.64, 195.13 0.03 M0.28 224.17 C71.98 142.63, 142.75 60.98, 195.13 0.03 M0.42 236.22 C67.79 159.06, 136.47 79.65, 205.76 -0.01 M0.42 236.22 C81.26 143.4, 162.43 51.48, 205.76 -0.01 M-0.11 249.01 C71.64 167.63, 142.65 82.32, 216.39 -0.04 M-0.11 249.01 C69.36 168.63, 139.6 87.83, 216.39 -0.04 M0.03 261.05 C74.63 174.58, 149.69 87.41, 227.02 -0.08 M0.03 261.05 C55.77 195.56, 113.03 129.95, 227.02 -0.08 M0.16 273.09 C78.79 181.91, 159.05 92.59, 237.65 -0.11 M0.16 273.09 C81.82 179.16, 163.52 84.78, 237.65 -0.11 M0.29 285.13 C68.86 205.8, 136.93 127.37, 248.28 -0.15 M0.29 285.13 C67.02 208.47, 135.47 129.81, 248.28 -0.15 M0.43 297.17 C77.01 211.61, 150.81 123.65, 258.91 -0.18 M0.43 297.17 C51.39 237.18, 104.24 176.69, 258.91 -0.18 M-0.1 309.97 C56.9 244.33, 113.12 180.53, 269.54 -0.22 M-0.1 309.97 C59.36 240.34, 118.68 171.85, 269.54 -0.22 M0.04 322.01 C63.35 249.7, 125.83 178.6, 280.17 -0.25 M0.04 322.01 C94.63 213.93, 188.3 104.93, 280.17 -0.25 M0.17 334.05 C62.41 261.25, 124.31 189.29, 290.8 -0.28 M0.17 334.05 C88.03 232.1, 175.98 129.67, 290.8 -0.28 M0.3 346.09 C116.72 211.27, 233.73 76.05, 300.78 0.44 M0.3 346.09 C69.02 266.89, 138.57 186.71, 300.78 0.44 M0.44 358.13 C73.56 275.89, 144.65 193.27, 311.41 0.4 M0.44 358.13 C123.72 218.44, 245.76 78.27, 311.41 0.4 M-0.09 370.93 C97.5 258.93, 194.25 146.89, 322.04 0.37 M-0.09 370.93 C76.37 282.31, 152.95 194.51, 322.04 0.37 M0.05 382.97 C76.04 294.15, 152.69 207.35, 332.67 0.33 M0.05 382.97 C69.88 301.65, 139.49 221.02, 332.67 0.33 M0.18 395.01 C104.05 276.66, 207.12 159.16, 343.3 0.3 M0.18 395.01 C123.02 253.67, 245.3 113.52, 343.3 0.3 M0.31 407.05 C82.66 312, 165.34 217.23, 353.93 0.26 M0.31 407.05 C121.4 268.48, 241.01 131.18, 353.93 0.26 M0.45 419.09 C138.67 260.13, 276.85 100.69, 364.56 0.23 M0.45 419.09 C91.86 315.29, 182.45 211.1, 364.56 0.23 M-0.08 431.89 C115.49 298.45, 230.95 166.42, 375.19 0.19 M-0.08 431.89 C81.96 338.02, 162.71 243.98, 375.19 0.19 M0.06 443.93 C146.05 273.85, 292.69 106.16, 385.82 0.16 M0.06 443.93 C89.12 343.42, 177.09 241.9, 385.82 0.16 M0.19 455.97 C139.83 293.72, 280.64 130.6, 396.45 0.12 M0.19 455.97 C132.8 302.44, 266.18 149.24, 396.45 0.12 M0.32 468.01 C153.37 290.35, 305.99 116.3, 407.08 0.09 M0.32 468.01 C110.01 341.84, 220.59 215.46, 407.08 0.09 M0.46 480.05 C139.84 320.02, 278.59 158.02, 417.71 0.06 M0.46 480.05 C105.12 360.07, 209.84 240.22, 417.71 0.06 M1.9 490.58 C127.12 348.68, 252.51 205.52, 428.34 0.02 M1.9 490.58 C88.36 391.61, 174.4 292.68, 428.34 0.02 M5.31 498.85 C106.18 379.97, 209.32 261.38, 438.97 -0.01 M5.31 498.85 C164.67 316.25, 322.2 135.09, 438.97 -0.01 M11.35 504.1 C139.48 357.62, 268.43 209.53, 449.6 -0.05 M11.35 504.1 C145.65 349.42, 279.7 196.19, 449.6 -0.05 M18.7 507.84 C149.47 354.72, 281.49 201.54, 460.23 -0.08 M18.7 507.84 C166 337.96, 314.64 166.58, 460.23 -0.08 M27.36 510.07 C203.23 307.93, 377.21 106.76, 470.86 -0.12 M27.36 510.07 C173.03 344.24, 316.1 179.31, 470.86 -0.12 M37.99 510.03 C131.67 405.21, 224.69 298.42, 481.49 -0.15 M37.99 510.03 C166.61 360.3, 296.23 211.61, 481.49 -0.15 M48.62 510 C157.25 382.62, 267.3 256.45, 492.12 -0.19 M48.62 510 C159.92 380.56, 272.51 251.63, 492.12 -0.19 M58.6 510.72 C186.49 365.38, 314.95 216.56, 502.75 -0.22 M58.6 510.72 C146.88 407.89, 237.45 303.92, 502.75 -0.22 M69.23 510.68 C224.55 330.35, 382.03 149.83, 513.38 -0.25 M69.23 510.68 C222.72 333.39, 376.89 156.49, 513.38 -0.25 M79.86 510.65 C216.62 351.17, 354.64 193.53, 523.35 0.47 M79.86 510.65 C212.4 358.02, 346.15 204.86, 523.35 0.47 M90.49 510.61 C202.41 382.1, 314.1 254.31, 533.98 0.43 M90.49 510.61 C228.47 352.08, 367.36 191.8, 533.98 0.43 M101.12 510.58 C227.73 363.04, 354.57 216.84, 544.61 0.4 M101.12 510.58 C220.47 369.6, 341.69 230.63, 544.61 0.4 M111.75 510.55 C256.93 343.43, 402.2 175.02, 555.24 0.36 M111.75 510.55 C255.04 348.43, 397.36 184.43, 555.24 0.36 M122.38 510.51 C246.59 370.49, 368.5 228, 565.87 0.33 M122.38 510.51 C241.56 377.68, 358.42 243.06, 565.87 0.33 M133.01 510.48 C226.93 402.75, 321.4 293.25, 576.5 0.29 M133.01 510.48 C303.28 311.81, 476.3 113.17, 576.5 0.29 M143.64 510.44 C315.65 316.5, 485.45 121.03, 587.14 0.26 M143.64 510.44 C264.7 370.4, 385.64 231, 587.14 0.26 M154.27 510.41 C324.06 316.95, 494.06 121.62, 597.77 0.22 M154.27 510.41 C330.25 309, 506.23 106.54, 597.77 0.22 M164.9 510.37 C319.4 332.47, 473.68 155.35, 608.4 0.19 M164.9 510.37 C323.54 326.56, 482.2 144.52, 608.4 0.19 M175.53 510.34 C329.49 333.94, 483.16 154.83, 619.03 0.16 M175.53 510.34 C298.49 366.71, 422.84 223.46, 619.03 0.16 M186.16 510.3 C348.35 326.17, 510.68 140.36, 629.66 0.12 M186.16 510.3 C287.15 393.63, 389.09 276.88, 629.66 0.12 M196.79 510.27 C318.26 369.53, 442.24 228.68, 640.29 0.09 M196.79 510.27 C298.91 394.65, 399.04 279.13, 640.29 0.09 M207.42 510.24 C324.38 375.18, 439.33 243.4, 650.92 0.05 M207.42 510.24 C323.04 377.98, 436.85 246.27, 650.92 0.05 M218.05 510.2 C382.09 321.89, 544.69 134.44, 660.89 0.77 M218.05 510.2 C346.4 364.35, 473.39 218.5, 660.89 0.77 M228.68 510.17 C368.7 350.07, 507.18 191.6, 668.9 3.76 M228.68 510.17 C345.45 374.64, 463.07 238.75, 668.9 3.76 M239.31 510.13 C358.79 374.39, 478.3 236.75, 675.59 8.25 M239.31 510.13 C395.26 328.33, 552.61 147.01, 675.59 8.25 M249.94 510.1 C356.73 386.73, 463.79 264.99, 680.31 15.01 M249.94 510.1 C398.43 340.81, 544.66 172.11, 680.31 15.01 M260.57 510.06 C379.54 371.98, 497.44 236, 683.07 24.03 M260.57 510.06 C348.28 406.42, 437.11 304.32, 683.07 24.03 M271.2 510.03 C364 404.56, 455.58 297.61, 683.86 35.32 M271.2 510.03 C358.79 409.42, 446.45 308.33, 683.86 35.32 M281.83 509.99 C413.66 355.65, 545.33 203.41, 683.99 47.36 M281.83 509.99 C381.31 394.52, 481.39 279.24, 683.99 47.36 M291.8 510.71 C388.47 400.38, 486.27 287.68, 684.13 59.4 M291.8 510.71 C400.11 383.19, 510.56 256.59, 684.13 59.4 M302.43 510.68 C379.38 423, 456.09 334.63, 684.26 71.44 M302.43 510.68 C435.87 357.98, 569.46 203.57, 684.26 71.44 M313.06 510.65 C451.11 351.24, 589.89 191.59, 683.74 84.23 M313.06 510.65 C459.44 341.95, 605.42 174.87, 683.74 84.23 M323.69 510.61 C435.61 380.17, 548.21 249.65, 683.87 96.28 M323.69 510.61 C410.65 408.36, 498.27 307.81, 683.87 96.28 M334.32 510.58 C438.85 388.99, 544.04 270.22, 684 108.32 M334.32 510.58 C422.62 407.01, 512.15 304.37, 684 108.32 M344.95 510.54 C461.55 378.37, 575.38 247.19, 684.14 120.36 M344.95 510.54 C450.18 390.01, 555.64 268.33, 684.14 120.36 M355.58 510.51 C473.22 375.09, 591.07 240.35, 684.27 132.4 M355.58 510.51 C430.8 423.37, 506.82 335.92, 684.27 132.4 M366.21 510.47 C488.45 369.74, 610.1 228.38, 683.75 145.19 M366.21 510.47 C491.75 367.69, 616.5 224.2, 683.75 145.19 M376.85 510.44 C480.95 393.03, 583.62 273.58, 683.88 157.23 M376.85 510.44 C480.56 391.39, 584.66 272.55, 683.88 157.23 M387.48 510.4 C448.83 439.73, 508.62 368.75, 684.01 169.27 M387.48 510.4 C500.96 377.12, 616.86 244.95, 684.01 169.27 M398.11 510.37 C471.99 423.43, 546.74 338.5, 684.15 181.32 M398.11 510.37 C469.52 425.91, 541.58 342.62, 684.15 181.32 M408.74 510.33 C463.83 445.3, 520.52 380.14, 684.28 193.36 M408.74 510.33 C476.74 431.18, 545.01 352.57, 684.28 193.36 M419.37 510.3 C524.08 388.41, 628.9 267.29, 683.76 206.15 M419.37 510.3 C501.65 417.41, 583.52 323.71, 683.76 206.15 M430 510.27 C485.65 446.76, 539.44 382.3, 683.89 218.19 M430 510.27 C527 397.72, 624.99 284.94, 683.89 218.19 M440.63 510.23 C502.35 437.88, 567.88 362.51, 684.02 230.23 M440.63 510.23 C510.54 428.68, 579.85 349.08, 684.02 230.23 M451.26 510.2 C530.4 422.47, 608.41 332.12, 684.16 242.27 M451.26 510.2 C511.54 439.76, 572.77 369.62, 684.16 242.27 M461.89 510.16 C509.84 455.84, 558.4 399.21, 684.29 254.32 M461.89 510.16 C515.01 447.64, 567.35 388, 684.29 254.32 M472.52 510.13 C531.65 441.86, 590.96 373.59, 683.77 267.11 M472.52 510.13 C516.81 461.49, 559.9 412.04, 683.77 267.11 M483.15 510.09 C533.59 449.32, 587.22 390.33, 683.9 279.15 M483.15 510.09 C534.18 450.82, 586.34 391.55, 683.9 279.15 M493.78 510.06 C537.97 456.57, 583.56 405.71, 684.03 291.19 M493.78 510.06 C567.27 424.82, 642.29 339.9, 684.03 291.19 M504.41 510.02 C545.32 462.8, 587.26 411.79, 684.17 303.23 M504.41 510.02 C558.52 447.22, 614.31 385.35, 684.17 303.23 M515.04 509.99 C550.8 469.27, 585.48 429.16, 684.3 315.27 M515.04 509.99 C555 460.96, 597.63 412.93, 684.3 315.27 M525.01 510.71 C560.76 467.94, 598.34 425.71, 683.78 328.07 M525.01 510.71 C587.93 439.5, 648.38 368.91, 683.78 328.07 M535.64 510.68 C577.36 465.24, 615.99 417.89, 683.91 340.11 M535.64 510.68 C575.69 466.32, 615.7 419.57, 683.91 340.11 M546.27 510.64 C599.74 447.92, 654.11 389.22, 684.04 352.15 M546.27 510.64 C599.98 448.91, 652.48 388.56, 684.04 352.15 M556.9 510.61 C598.79 465.15, 637.13 416.53, 684.18 364.19 M556.9 510.61 C582.64 479.6, 610.29 450.37, 684.18 364.19 M567.53 510.57 C597.85 472.56, 630.92 435.43, 684.31 376.23 M567.53 510.57 C591.29 481.42, 615.9 453.72, 684.31 376.23 M578.16 510.54 C611.58 471.91, 642.87 435.56, 683.79 389.03 M578.16 510.54 C607.53 477.15, 635.76 446.03, 683.79 389.03 M588.79 510.5 C619.11 477.76, 649.31 440.89, 683.92 401.07 M588.79 510.5 C613.71 483.45, 637.73 454.81, 683.92 401.07 M599.42 510.47 C616.57 489.3, 635.52 467.26, 684.05 413.11 M599.42 510.47 C623.07 482.67, 649.33 452.95, 684.05 413.11 M610.05 510.43 C637.46 480.24, 663.95 447.98, 684.19 425.15 M610.05 510.43 C636.37 481.22, 662.22 451.27, 684.19 425.15 M620.68 510.4 C637.64 488.91, 656.21 466.07, 684.32 437.19 M620.68 510.4 C634.32 494.85, 647.59 477.43, 684.32 437.19 M631.31 510.37 C649.85 489.82, 665.44 468.83, 683.8 449.99 M631.31 510.37 C651.72 486.2, 671.02 463.25, 683.8 449.99 M641.94 510.33 C649.29 501.17, 661.25 491.25, 683.93 462.03 M641.94 510.33 C650.34 500.35, 659.16 490.94, 683.93 462.03 M652.57 510.3 C666.21 496.65, 677.74 481.02, 684.06 474.07 M652.57 510.3 C662.63 499.27, 671.9 486.89, 684.06 474.07 M664.51 508.75 C671.97 500.64, 677.69 495.26, 684.2 486.11 M664.51 508.75 C669.47 502.47, 676.32 495.88, 684.2 486.11" stroke="#b2f2bb" stroke-width="1" fill="none"></path><path d="M32 0 C240.07 -0.41, 450.26 -0.43, 652 0 M32 0 C240.39 1.85, 448.56 2.27, 652 0 M652 0 C674.84 0.98, 685.51 10.27, 684 32 M652 0 C671.79 -1.97, 683.32 9.37, 684 32 M684 32 C685.15 121.93, 685.01 211.24, 684 478 M684 32 C684.5 193.05, 684.56 353.82, 684 478 M684 478 C683.33 497.64, 672.32 508.08, 652 510 M684 478 C685.97 499.64, 673.59 509.8, 652 510 M652 510 C518.26 510.13, 384.04 510.38, 32 510 M652 510 C437.9 511.42, 223.94 511.39, 32 510 M32 510 C8.92 509.16, -0.09 497.67, 0 478 M32 510 C8.7 509.61, 0.19 498.67, 0 478 M0 478 C-1.52 375.38, -2.41 272.99, 0 32 M0 478 C1.43 314.45, 1.14 150.73, 0 32 M0 32 C1.4 11.44, 9.64 -1.59, 32 0 M0 32 C-0.05 8.39, 11.67 1.74, 32 0" stroke="#1e1e1e" stroke-width="2" fill="none"></path></g><g transform="translate(991.4761904761901 511.99999999999864) rotate(0 333.65972900390625 175)"><text x="0" y="0" font-family="Virgil, Segoe UI Emoji" font-size="20px" fill="#1e1e1e" text-anchor="start" style="white-space: pre;" direction="ltr" dominant-baseline="text-before-edge">    1. Gastroesophageal reflux disease -</text><text x="0" y="25" font-family="Virgil, Segoe UI Emoji" font-size="20px" fill="#1e1e1e" text-anchor="start" style="white-space: pre;" direction="ltr" dominant-baseline="text-before-edge">       Stable</text><text x="0" y="50" font-family="Virgil, Segoe UI Emoji" font-size="20px" fill="#1e1e1e" text-anchor="start" style="white-space: pre;" direction="ltr" dominant-baseline="text-before-edge">       Continue the antacids</text><text x="0" y="75" font-family="Virgil, Segoe UI Emoji" font-size="20px" fill="#1e1e1e" text-anchor="start" style="white-space: pre;" direction="ltr" dominant-baseline="text-before-edge">       F/U in 3 months</text><text x="0" y="100" font-family="Virgil, Segoe UI Emoji" font-size="20px" fill="#1e1e1e" text-anchor="start" style="white-space: pre;" direction="ltr" dominant-baseline="text-before-edge">       K21.9: Gastro-esophageal reflux disease without esophagitis</text><text x="0" y="125" font-family="Virgil, Segoe UI Emoji" font-size="20px" fill="#1e1e1e" text-anchor="start" style="white-space: pre;" direction="ltr" dominant-baseline="text-before-edge">    </text><text x="0" y="150" font-family="Virgil, Segoe UI Emoji" font-size="20px" fill="#1e1e1e" text-anchor="start" style="white-space: pre;" direction="ltr" dominant-baseline="text-before-edge">    2. Hyperglycemia due to type 2 diabetes mellitus -</text><text x="0" y="175" font-family="Virgil, Segoe UI Emoji" font-size="20px" fill="#1e1e1e" text-anchor="start" style="white-space: pre;" direction="ltr" dominant-baseline="text-before-edge">       Worsening</text><text x="0" y="200" font-family="Virgil, Segoe UI Emoji" font-size="20px" fill="#1e1e1e" text-anchor="start" style="white-space: pre;" direction="ltr" dominant-baseline="text-before-edge">       Continue Metformin1000 mg BID and Glimepiride 8 mg</text><text x="0" y="225" font-family="Virgil, Segoe UI Emoji" font-size="20px" fill="#1e1e1e" text-anchor="start" style="white-space: pre;" direction="ltr" dominant-baseline="text-before-edge">       Recommend a low sugar and low carbohydrate diet. Fruits</text><text x="0" y="250" font-family="Virgil, Segoe UI Emoji" font-size="20px" fill="#1e1e1e" text-anchor="start" style="white-space: pre;" direction="ltr" dominant-baseline="text-before-edge">       and vegetables are acceptable.</text><text x="0" y="275" font-family="Virgil, Segoe UI Emoji" font-size="20px" fill="#1e1e1e" text-anchor="start" style="white-space: pre;" direction="ltr" dominant-baseline="text-before-edge">       Discussed 1/2 plate with non-starchy vegetables, 1/4 of</text><text x="0" y="300" font-family="Virgil, Segoe UI Emoji" font-size="20px" fill="#1e1e1e" text-anchor="start" style="white-space: pre;" direction="ltr" dominant-baseline="text-before-edge">       plate with carbohydrates such as whole grain, 1/4 of plate</text><text x="0" y="325" font-family="Virgil, Segoe UI Emoji" font-size="20px" fill="#1e1e1e" text-anchor="start" style="white-space: pre;" direction="ltr" dominant-baseline="text-before-edge">       with lean protein.</text></g><g transform="translate(2274.4761904761904 10) rotate(0 304.3697814941406 12.5)"><text x="0" y="0" font-family="Virgil, Segoe UI Emoji" font-size="20px" fill="#1e1e1e" text-anchor="start" style="white-space: pre;" direction="ltr" dominant-baseline="text-before-edge">https://www.johndcook.com/blog/2019/05/05/regex_icd_codes/</text></g><g stroke-linecap="round"><g transform="translate(684.1428571428582 693.5000000000005) rotate(0 145 -1.25)"><path d="M0 0 C48.33 -0.42, 241.67 -2.08, 290 -2.5 M0 0 C48.33 -0.42, 241.67 -2.08, 290 -2.5" stroke="#1e1e1e" stroke-width="2" fill="none"></path></g><g transform="translate(684.1428571428582 693.5000000000005) rotate(0 145 -1.25)"><path d="M290 -2.5 L276.46 3.96 L276.35 -8.72 L290 -2.5" stroke="none" stroke-width="0" fill="#1e1e1e" fill-rule="evenodd"></path><path d="M290 -2.5 C285.96 -0.57, 281.92 1.35, 276.46 3.96 M290 -2.5 C285.15 -0.19, 280.3 2.13, 276.46 3.96 M276.46 3.96 C276.43 0.4, 276.4 -3.16, 276.35 -8.72 M276.46 3.96 C276.42 -0.53, 276.38 -5.02, 276.35 -8.72 M276.35 -8.72 C280.93 -6.64, 285.5 -4.55, 290 -2.5 M276.35 -8.72 C280.01 -7.06, 283.66 -5.39, 290 -2.5 M290 -2.5 C290 -2.5, 290 -2.5, 290 -2.5 M290 -2.5 C290 -2.5, 290 -2.5, 290 -2.5" stroke="#1e1e1e" stroke-width="2" fill="none"></path></g></g><mask></mask><g transform="translate(705.3629804338739 651.0000000000005) rotate(0 120.0537109375 11.5)"><text x="0" y="0" font-family="Helvetica, Segoe UI Emoji" font-size="20px" fill="#e03131" text-anchor="start" style="white-space: pre;" direction="ltr" dominant-baseline="text-before-edge">extract_assessment_plan()</text></g><g stroke-linecap="round"><g transform="translate(1673.3095238095243 697.6666666666674) rotate(0 172.5 5)"><path d="M0 0 C57.5 1.67, 287.5 8.33, 345 10 M0 0 C57.5 1.67, 287.5 8.33, 345 10" stroke="#1e1e1e" stroke-width="2" fill="none"></path></g><g transform="translate(1673.3095238095243 697.6666666666674) rotate(0 172.5 5)"><path d="M345 10 L331.23 15.94 L331.59 3.27 L345 10" stroke="none" stroke-width="0" fill="#1e1e1e" fill-rule="evenodd"></path><path d="M345 10 C341.56 11.48, 338.12 12.97, 331.23 15.94 M345 10 C339.53 12.36, 334.05 14.72, 331.23 15.94 M331.23 15.94 C331.32 12.9, 331.4 9.85, 331.59 3.27 M331.23 15.94 C331.33 12.36, 331.44 8.77, 331.59 3.27 M331.59 3.27 C334.56 4.76, 337.53 6.25, 345 10 M331.59 3.27 C335.64 5.3, 339.68 7.33, 345 10 M345 10 C345 10, 345 10, 345 10 M345 10 C345 10, 345 10, 345 10" stroke="#1e1e1e" stroke-width="2" fill="none"></path></g></g><mask></mask></svg>