<svg version="1.1" xmlns="http://www.w3.org/2000/svg" viewBox="0 0 2965.555780201582 1659.9625846931876" width="2965.555780201582" height="1659.9625846931876">
  <!-- svg-source:excalidraw -->
  
  <defs>
    <style class="style-fonts">
      @font-face {
        font-family: "Virgil";
        src: url("https://file%2B.vscode-resource.vscode-cdn.net/c%3A/Users/Admin/.vscode-oss/extensions/pomdtr.excalidraw-editor-3.7.4-universal/public//dist/excalidraw-assets/Virgil.woff2");
      }
      @font-face {
        font-family: "Cascadia";
        src: url("https://file%2B.vscode-resource.vscode-cdn.net/c%3A/Users/Admin/.vscode-oss/extensions/pomdtr.excalidraw-editor-3.7.4-universal/public//dist/excalidraw-assets/Cascadia.woff2");
      }
      @font-face {
        font-family: "Assistant";
        src: url("https://file%2B.vscode-resource.vscode-cdn.net/c%3A/Users/Admin/.vscode-oss/extensions/pomdtr.excalidraw-editor-3.7.4-universal/public//dist/excalidraw-assets/Assistant-Regular.woff2");
      }
    </style>
    
  </defs>
  <rect x="0" y="0" width="2965.555780201582" height="1659.9625846931876" fill="#ffffff"></rect><g stroke-linecap="round" transform="translate(10 73.14278309961264) rotate(0 485.91589023173157 491.8680791176232)"><path d="M0 0 C338.4 -0.93, 678.07 -0.29, 971.83 0 M0 0 C278.77 -2.06, 556.58 -1.82, 971.83 0 M971.83 0 C974.71 261.12, 973.68 521.56, 971.83 983.74 M971.83 0 C969.65 331.32, 969.81 662.67, 971.83 983.74 M971.83 983.74 C637.85 987.24, 303.71 988.26, 0 983.74 M971.83 983.74 C618.85 983.97, 266.29 983.47, 0 983.74 M0 983.74 C1.53 620.4, 1.04 258.04, 0 0 M0 983.74 C3.35 601.66, 3.07 219.88, 0 0" stroke="#1e1e1e" stroke-width="2" fill="none"></path></g><g stroke-linecap="round"><g transform="translate(23.84844707131026 170.87701294914223) rotate(0 460.8333333333333 -3.3333333333332575)"><path d="M-0.22 0.23 C153.48 -0.77, 768.64 -5.77, 922.42 -6.83 M-1.79 -0.69 C151.79 -1.43, 767.88 -4.13, 921.87 -5.38" stroke="#1e1e1e" stroke-width="2" fill="none"></path></g></g><mask></mask><g stroke-linecap="round"><g transform="translate(388.2224468682498 130.21034628247526) rotate(0 5.833333333333371 457.4999999999998)"><path d="M0.75 -0.16 C2.87 152.39, 10.47 763.16, 12.47 915.56 M-0.31 -1.29 C1.74 150.88, 9.8 760.99, 11.94 913.73" stroke="#1e1e1e" stroke-width="2" fill="none"></path></g></g><mask></mask><g transform="translate(42.11133575713848 119.76590183803091) rotate(0 153.30593872070312 247.5)"><text x="153.30593872070312" y="0" font-family="Virgil, Segoe UI Emoji" font-size="36px" fill="#1e1e1e" text-anchor="middle" style="white-space: pre;" direction="ltr" dominant-baseline="text-before-edge">ICD-10-CM Codes</text><text x="153.30593872070312" y="45" font-family="Virgil, Segoe UI Emoji" font-size="36px" fill="#1e1e1e" text-anchor="middle" style="white-space: pre;" direction="ltr" dominant-baseline="text-before-edge">A0104</text><text x="153.30593872070312" y="90" font-family="Virgil, Segoe UI Emoji" font-size="36px" fill="#1e1e1e" text-anchor="middle" style="white-space: pre;" direction="ltr" dominant-baseline="text-before-edge">A0105</text><text x="153.30593872070312" y="135" font-family="Virgil, Segoe UI Emoji" font-size="36px" fill="#1e1e1e" text-anchor="middle" style="white-space: pre;" direction="ltr" dominant-baseline="text-before-edge">A021</text><text x="153.30593872070312" y="180" font-family="Virgil, Segoe UI Emoji" font-size="36px" fill="#1e1e1e" text-anchor="middle" style="white-space: pre;" direction="ltr" dominant-baseline="text-before-edge">A0223</text><text x="153.30593872070312" y="225" font-family="Virgil, Segoe UI Emoji" font-size="36px" fill="#1e1e1e" text-anchor="middle" style="white-space: pre;" direction="ltr" dominant-baseline="text-before-edge">A0224</text><text x="153.30593872070312" y="270" font-family="Virgil, Segoe UI Emoji" font-size="36px" fill="#1e1e1e" text-anchor="middle" style="white-space: pre;" direction="ltr" dominant-baseline="text-before-edge">A065</text><text x="153.30593872070312" y="315" font-family="Virgil, Segoe UI Emoji" font-size="36px" fill="#1e1e1e" text-anchor="middle" style="white-space: pre;" direction="ltr" dominant-baseline="text-before-edge">A072</text><text x="153.30593872070312" y="360" font-family="Virgil, Segoe UI Emoji" font-size="36px" fill="#1e1e1e" text-anchor="middle" style="white-space: pre;" direction="ltr" dominant-baseline="text-before-edge">A207</text><text x="153.30593872070312" y="405" font-family="Virgil, Segoe UI Emoji" font-size="36px" fill="#1e1e1e" text-anchor="middle" style="white-space: pre;" direction="ltr" dominant-baseline="text-before-edge">:</text><text x="153.30593872070312" y="450" font-family="Virgil, Segoe UI Emoji" font-size="36px" fill="#1e1e1e" text-anchor="middle" style="white-space: pre;" direction="ltr" dominant-baseline="text-before-edge"></text></g><g transform="translate(421.8018739515833 119.48812406025263) rotate(0 209.75390625 225)"><text x="0" y="0" font-family="Virgil, Segoe UI Emoji" font-size="36px" fill="#1e1e1e" text-anchor="start" style="white-space: pre;" direction="ltr" dominant-baseline="text-before-edge">Description</text><text x="0" y="45" font-family="Virgil, Segoe UI Emoji" font-size="36px" fill="#1e1e1e" text-anchor="start" style="white-space: pre;" direction="ltr" dominant-baseline="text-before-edge">Typhoid arthritis</text><text x="0" y="90" font-family="Virgil, Segoe UI Emoji" font-size="36px" fill="#1e1e1e" text-anchor="start" style="white-space: pre;" direction="ltr" dominant-baseline="text-before-edge">Typhoid osteomyelitis</text><text x="0" y="135" font-family="Virgil, Segoe UI Emoji" font-size="36px" fill="#1e1e1e" text-anchor="start" style="white-space: pre;" direction="ltr" dominant-baseline="text-before-edge">Salmonella sepsis</text><text x="0" y="180" font-family="Virgil, Segoe UI Emoji" font-size="36px" fill="#1e1e1e" text-anchor="start" style="white-space: pre;" direction="ltr" dominant-baseline="text-before-edge">Salmonella arthritis</text><text x="0" y="225" font-family="Virgil, Segoe UI Emoji" font-size="36px" fill="#1e1e1e" text-anchor="start" style="white-space: pre;" direction="ltr" dominant-baseline="text-before-edge">Salmonella osteomyelitis</text><text x="0" y="270" font-family="Virgil, Segoe UI Emoji" font-size="36px" fill="#1e1e1e" text-anchor="start" style="white-space: pre;" direction="ltr" dominant-baseline="text-before-edge">Amebic lung abscess</text><text x="0" y="315" font-family="Virgil, Segoe UI Emoji" font-size="36px" fill="#1e1e1e" text-anchor="start" style="white-space: pre;" direction="ltr" dominant-baseline="text-before-edge">Cryptosporidiosis</text><text x="0" y="360" font-family="Virgil, Segoe UI Emoji" font-size="36px" fill="#1e1e1e" text-anchor="start" style="white-space: pre;" direction="ltr" dominant-baseline="text-before-edge">Septicemic plague</text><text x="0" y="405" font-family="Virgil, Segoe UI Emoji" font-size="36px" fill="#1e1e1e" text-anchor="start" style="white-space: pre;" direction="ltr" dominant-baseline="text-before-edge">:</text></g><g stroke-linecap="round"><g transform="translate(23.78696683595217 212.3113630126527) rotate(0 461.18803869144 -3.081231239167323)"><path d="M-0.67 -0.04 C152.8 -0.83, 768.03 -4.7, 921.96 -5.52 M1.17 -1.11 C154.36 -2.18, 767.25 -6.38, 920.79 -7.31" stroke="#1e1e1e" stroke-width="2" fill="none"></path></g></g><mask></mask><g stroke-linecap="round"><g transform="translate(25.259889756229995 259.20911083182455) rotate(0 459.5213720247733 -1.4145645725005807)"><path d="M-0.42 0.64 C152.95 0.37, 766.25 -1.02, 919.57 -1.66 M1.56 -0.07 C154.88 -0.64, 766 -2.83, 918.89 -3.16" stroke="#1e1e1e" stroke-width="2" fill="none"></path></g></g><mask></mask><g stroke-linecap="round"><g transform="translate(22.28323309534062 306.1068586509973) rotate(0 459.5213720247733 0.25210209416593443)"><path d="M0.52 1.17 C153.84 1.09, 766.42 0.18, 919.48 0.14 M-0.66 0.74 C152.57 0.78, 765.64 1.8, 918.76 1.49" stroke="#1e1e1e" stroke-width="2" fill="none"></path></g></g><mask></mask><g stroke-linecap="round"><g transform="translate(17.089489348951588 347.8416735441142) rotate(0 460.3547053581066 1.085435427499192)"><path d="M0.44 -0.36 C153.77 -0.12, 767.28 2.04, 920.56 2.61 M-0.8 -1.6 C152.33 -1.22, 766.23 0.25, 919.53 0.72" stroke="#1e1e1e" stroke-width="2" fill="none"></path></g></g><mask></mask><g stroke-linecap="round"><g transform="translate(13.756156015618217 387.68526720384216) rotate(0 458.68803869143994 2.7521020941659344)"><path d="M-0.15 0.44 C152.56 1.58, 763.83 5.67, 916.73 6.44 M-1.69 -0.37 C151.38 0.47, 766.09 3.72, 919.1 4.8" stroke="#1e1e1e" stroke-width="2" fill="none"></path></g></g><mask></mask><g stroke-linecap="round"><g transform="translate(22.267827685173415 430.3271791882362) rotate(0 455.3547053581067 2.752102094166048)"><path d="M-0.65 0.93 C151.13 1.7, 758.6 4.42, 910.55 5.04 M1.21 0.38 C152.83 1.27, 757.98 5.47, 909.51 6.33" stroke="#1e1e1e" stroke-width="2" fill="none"></path></g></g><mask></mask><g stroke-linecap="round"><g transform="translate(25.438228092452164 480.93034242335307) rotate(0 455.3547053581066 1.918768760832677)"><path d="M-0.16 -0.47 C151.78 -0.12, 759.12 2.11, 911.02 2.98 M-1.71 -1.76 C150.16 -1.37, 758.16 3.3, 910.24 4.07" stroke="#1e1e1e" stroke-width="2" fill="none"></path></g></g><mask></mask><g transform="translate(1737.889113534916 476.71034628247526) rotate(0 595.6083984375 124.20000000000005)"><text x="0" y="0" font-family="Helvetica, Segoe UI Emoji" font-size="36px" fill="#2f9e44" text-anchor="start" style="white-space: pre;" direction="ltr" dominant-baseline="text-before-edge">3. Chronic obstructive lung disease -</text><text x="0" y="41.4" font-family="Helvetica, Segoe UI Emoji" font-size="36px" fill="#2f9e44" text-anchor="start" style="white-space: pre;" direction="ltr" dominant-baseline="text-before-edge">   Unchanged</text><text x="0" y="82.8" font-family="Helvetica, Segoe UI Emoji" font-size="36px" fill="#2f9e44" text-anchor="start" style="white-space: pre;" direction="ltr" dominant-baseline="text-before-edge">   SPO2-98% today</text><text x="0" y="124.19999999999999" font-family="Helvetica, Segoe UI Emoji" font-size="36px" fill="#2f9e44" text-anchor="start" style="white-space: pre;" direction="ltr" dominant-baseline="text-before-edge">   Maintain current inhaler regimen: Tiotropium and Fluticasone/Salmeterol.</text><text x="0" y="165.6" font-family="Helvetica, Segoe UI Emoji" font-size="36px" fill="#2f9e44" text-anchor="start" style="white-space: pre;" direction="ltr" dominant-baseline="text-before-edge">   Counseled for smoking cessation today</text><text x="0" y="207" font-family="Helvetica, Segoe UI Emoji" font-size="36px" fill="#2f9e44" text-anchor="start" style="white-space: pre;" direction="ltr" dominant-baseline="text-before-edge">   J44.9: Chronic obstructive pulmonary disease, unspecified</text></g><g transform="translate(1732.889113534916 878.3770129491413) rotate(0 408.2080078125 124.20000000000005)"><text x="0" y="0" font-family="Helvetica, Segoe UI Emoji" font-size="36px" fill="#1e1e1e" text-anchor="start" style="white-space: pre;" direction="ltr" dominant-baseline="text-before-edge">4. Essential hypertension -</text><text x="0" y="41.4" font-family="Helvetica, Segoe UI Emoji" font-size="36px" fill="#1e1e1e" text-anchor="start" style="white-space: pre;" direction="ltr" dominant-baseline="text-before-edge">   Stable</text><text x="0" y="82.8" font-family="Helvetica, Segoe UI Emoji" font-size="36px" fill="#1e1e1e" text-anchor="start" style="white-space: pre;" direction="ltr" dominant-baseline="text-before-edge">   on Metoprolol and Losartan-HCTZ</text><text x="0" y="124.19999999999999" font-family="Helvetica, Segoe UI Emoji" font-size="36px" fill="#1e1e1e" text-anchor="start" style="white-space: pre;" direction="ltr" dominant-baseline="text-before-edge">   BP checks at home: high in morning before meds</text><text x="0" y="165.6" font-family="Helvetica, Segoe UI Emoji" font-size="36px" fill="#1e1e1e" text-anchor="start" style="white-space: pre;" direction="ltr" dominant-baseline="text-before-edge">   BP: 140/80 today</text><text x="0" y="207" font-family="Helvetica, Segoe UI Emoji" font-size="36px" fill="#1e1e1e" text-anchor="start" style="white-space: pre;" direction="ltr" dominant-baseline="text-before-edge">   I10: Essential (primary) hypertension</text></g><g stroke-linecap="round" transform="translate(1663.889113534916 428.3770129491413) rotate(0 645.833333333333 385)"><path d="M32 0 C454.52 -5.28, 876.88 -4.26, 1259.67 0 M32 0 C477.65 0.11, 923.73 -0.39, 1259.67 0 M1259.67 0 C1282.38 -0.58, 1291.23 11.63, 1291.67 32 M1259.67 0 C1280.01 -0.3, 1292.49 12.7, 1291.67 32 M1291.67 32 C1291.73 180.82, 1292.35 330.57, 1291.67 738 M1291.67 32 C1291.1 253.84, 1291.46 475.27, 1291.67 738 M1291.67 738 C1290.71 757.51, 1282.81 769.5, 1259.67 770 M1291.67 738 C1293.19 757.79, 1283.07 769.42, 1259.67 770 M1259.67 770 C833.02 765.74, 407.16 766.47, 32 770 M1259.67 770 C926.11 769.92, 592.93 770.34, 32 770 M32 770 C8.69 768.34, 1.99 758.73, 0 738 M32 770 C11.54 767.7, -0.52 759.84, 0 738 M0 738 C0.86 484.46, 0.36 231.85, 0 32 M0 738 C-2.89 569.46, -3 401.01, 0 32 M0 32 C0.82 12.03, 10.66 -1.36, 32 0 M0 32 C2.14 9.71, 8.37 0.33, 32 0" stroke="#1e1e1e" stroke-width="2" fill="none"></path></g><g stroke-linecap="round"><g transform="translate(19.774977055684076 571.2808100690991) rotate(0 455.3547053581066 1.918768760832677)"><path d="M-0.57 0.58 C151.18 1.28, 759.6 4.05, 911.67 4.59 M1.34 -0.16 C152.9 0.16, 759.5 1.98, 911.23 2.87" stroke="#1e1e1e" stroke-width="2" fill="none"></path></g></g><mask></mask><g stroke-linecap="round"><g transform="translate(31.44164372235082 661.2808100690991) rotate(0 455.3547053581066 1.918768760832677)"><path d="M0.96 0.76 C153.04 1.3, 760.3 3.25, 911.87 3.85 M0.01 0.11 C152.08 0.81, 759.96 5.03, 911.53 5.4" stroke="#1e1e1e" stroke-width="2" fill="none"></path></g></g><mask></mask><g transform="translate(422.2621294079328 571.6309854416604) rotate(0 262.7278747558594 45)"><text x="0" y="0" font-family="Virgil, Segoe UI Emoji" font-size="36px" fill="#2f9e44" text-anchor="start" style="white-space: pre;" direction="ltr" dominant-baseline="text-before-edge">Chronic obstructive</text><text x="0" y="45" font-family="Virgil, Segoe UI Emoji" font-size="36px" fill="#2f9e44" text-anchor="start" style="white-space: pre;" direction="ltr" dominant-baseline="text-before-edge">pulmonary disease, unspecified</text></g><g transform="translate(154.45260559840926 577.6627314734078) rotate(0 45.41398620605469 22.5)"><text x="0" y="0" font-family="Virgil, Segoe UI Emoji" font-size="36px" fill="#2f9e44" text-anchor="start" style="white-space: pre;" direction="ltr" dominant-baseline="text-before-edge">J449</text></g><g transform="translate(138.73831988412348 717.2817790924555) rotate(0 51.803985595703125 157.5)"><text x="51.803985595703125" y="0" font-family="Virgil, Segoe UI Emoji" font-size="36px" fill="#1e1e1e" text-anchor="middle" style="white-space: pre;" direction="ltr" dominant-baseline="text-before-edge">:</text><text x="51.803985595703125" y="45" font-family="Virgil, Segoe UI Emoji" font-size="36px" fill="#1e1e1e" text-anchor="middle" style="white-space: pre;" direction="ltr" dominant-baseline="text-before-edge">H4313</text><text x="51.803985595703125" y="90" font-family="Virgil, Segoe UI Emoji" font-size="36px" fill="#1e1e1e" text-anchor="middle" style="white-space: pre;" direction="ltr" dominant-baseline="text-before-edge">I0981</text><text x="51.803985595703125" y="135" font-family="Virgil, Segoe UI Emoji" font-size="36px" fill="#1e1e1e" text-anchor="middle" style="white-space: pre;" direction="ltr" dominant-baseline="text-before-edge">I110</text><text x="51.803985595703125" y="180" font-family="Virgil, Segoe UI Emoji" font-size="36px" fill="#1e1e1e" text-anchor="middle" style="white-space: pre;" direction="ltr" dominant-baseline="text-before-edge"></text><text x="51.803985595703125" y="225" font-family="Virgil, Segoe UI Emoji" font-size="36px" fill="#1e1e1e" text-anchor="middle" style="white-space: pre;" direction="ltr" dominant-baseline="text-before-edge">I120</text><text x="51.803985595703125" y="270" font-family="Virgil, Segoe UI Emoji" font-size="36px" fill="#1e1e1e" text-anchor="middle" style="white-space: pre;" direction="ltr" dominant-baseline="text-before-edge"></text></g><g transform="translate(431.23868609506064 718.2817790924555) rotate(0 269.1539001464844 157.5)"><text x="0" y="0" font-family="Virgil, Segoe UI Emoji" font-size="36px" fill="#1e1e1e" text-anchor="start" style="white-space: pre;" direction="ltr" dominant-baseline="text-before-edge">:</text><text x="0" y="45" font-family="Virgil, Segoe UI Emoji" font-size="36px" fill="#1e1e1e" text-anchor="start" style="white-space: pre;" direction="ltr" dominant-baseline="text-before-edge">Vitreous hemorrhage, bilateral</text><text x="0" y="90" font-family="Virgil, Segoe UI Emoji" font-size="36px" fill="#1e1e1e" text-anchor="start" style="white-space: pre;" direction="ltr" dominant-baseline="text-before-edge">Rheumatic heart failure</text><text x="0" y="135" font-family="Virgil, Segoe UI Emoji" font-size="36px" fill="#1e1e1e" text-anchor="start" style="white-space: pre;" direction="ltr" dominant-baseline="text-before-edge">Hypertensive heart disease</text><text x="0" y="180" font-family="Virgil, Segoe UI Emoji" font-size="36px" fill="#1e1e1e" text-anchor="start" style="white-space: pre;" direction="ltr" dominant-baseline="text-before-edge">with heart failure</text><text x="0" y="225" font-family="Virgil, Segoe UI Emoji" font-size="36px" fill="#1e1e1e" text-anchor="start" style="white-space: pre;" direction="ltr" dominant-baseline="text-before-edge">Hypertensive chronic kidney</text><text x="0" y="270" font-family="Virgil, Segoe UI Emoji" font-size="36px" fill="#1e1e1e" text-anchor="start" style="white-space: pre;" direction="ltr" dominant-baseline="text-before-edge">disease with stage 5 chronic...</text></g><g stroke-linecap="round"><g transform="translate(41.96039868240371 806.4728194416684) rotate(0 459.8547053581066 -2.081231239167323)"><path d="M-0.26 0.58 C152.8 -0.08, 765.79 -3.71, 919.19 -4.32 M1.8 -0.16 C154.58 -0.6, 765.01 -2.08, 917.98 -2.86" stroke="#1e1e1e" stroke-width="2" fill="none"></path></g></g><mask></mask><g stroke-linecap="round"><g transform="translate(43.20330075761285 852.5052829006554) rotate(0 459.8547053581066 -2.081231239167323)"><path d="M-0.52 -0.16 C152.89 -0.77, 766.94 -2.44, 920.14 -3.1 M1.41 -1.28 C154.72 -2.26, 766.15 -4.41, 919.42 -4.67" stroke="#1e1e1e" stroke-width="2" fill="none"></path></g></g><mask></mask><g stroke-linecap="round"><g transform="translate(45.20330075761285 938.5052829006554) rotate(0 459.8547053581066 -2.081231239167323)"><path d="M0.43 1.06 C153.62 0.4, 765.5 -3.28, 918.65 -4.15 M-0.8 0.57 C152.8 0.13, 767.61 -2.04, 920.81 -2.6" stroke="#1e1e1e" stroke-width="2" fill="none"></path></g></g><mask></mask><g stroke-linecap="round"><g transform="translate(57.388970110975265 757.1672638861137) rotate(0 455.3547053581066 1.918768760832677)"><path d="M-1.06 0.02 C150.6 0.49, 758.59 3.08, 910.35 3.88 M0.59 -1.02 C152.02 0.17, 757.35 4.77, 909.21 5.43" stroke="#1e1e1e" stroke-width="2" fill="none"></path></g></g><mask></mask><g transform="translate(1727.6741806542148 365.50001017252544) rotate(0 300.599853515625 45)"><text x="0" y="0" font-family="Virgil, Segoe UI Emoji" font-size="36px" fill="#1e1e1e" text-anchor="start" style="white-space: pre;" direction="ltr" dominant-baseline="text-before-edge">FILE: pn_1: Assesment_plan items</text><text x="0" y="45" font-family="Virgil, Segoe UI Emoji" font-size="36px" fill="#1e1e1e" text-anchor="start" style="white-space: pre;" direction="ltr" dominant-baseline="text-before-edge">for example, for this 2 items</text></g><g stroke-linecap="round" transform="translate(1754.9407008365063 684.8333435058585) rotate(0 58 21)"><path d="M2.79 2.43 C2.79 2.43, 2.79 2.43, 2.79 2.43 M2.79 2.43 C2.79 2.43, 2.79 2.43, 2.79 2.43 M0.96 16.73 C5.44 12.72, 12.27 7.06, 14.74 0.89 M0.96 16.73 C5.35 12.9, 8.62 8.85, 14.74 0.89 M1.09 28.78 C9.84 18.89, 17.84 10.12, 25.37 0.85 M1.09 28.78 C10.53 17.75, 20.22 6.73, 25.37 0.85 M3.19 38.55 C15.64 25.58, 25.81 12.94, 36 0.82 M3.19 38.55 C16.43 23.23, 27.87 9.23, 36 0.82 M11.2 41.54 C25.38 28.62, 38.13 13.46, 46.63 0.78 M11.2 41.54 C22.85 28.47, 35.57 13.44, 46.63 0.78 M21.83 41.5 C33.47 31.54, 42.9 16.7, 57.26 0.75 M21.83 41.5 C32.95 28.18, 45 13.9, 57.26 0.75 M32.46 41.47 C41.05 30.66, 52.34 20.4, 67.89 0.71 M32.46 41.47 C44.35 26.96, 58.9 11.75, 67.89 0.71 M43.09 41.43 C53.43 26.77, 67.25 12.87, 78.52 0.68 M43.09 41.43 C55.66 27.35, 66.37 14.54, 78.52 0.68 M53.72 41.4 C66.3 26.02, 82.9 10.4, 88.49 1.4 M53.72 41.4 C65.02 27.51, 75.88 15.51, 88.49 1.4 M63.69 42.12 C72.24 32.65, 79.63 25.8, 99.12 1.36 M63.69 42.12 C78.46 27.12, 91.27 11.17, 99.12 1.36 M74.32 42.08 C87.79 29.35, 97.98 11.91, 110.41 0.58 M74.32 42.08 C82.32 33.93, 88.58 25.14, 110.41 0.58 M84.95 42.05 C93.56 32.16, 99.12 26.93, 115.79 6.58 M84.95 42.05 C95.01 30.9, 103.96 21.12, 115.79 6.58 M95.58 42.02 C101.4 34.22, 108.87 24.58, 115.92 18.62 M95.58 42.02 C101.56 35.23, 106.09 28.52, 115.92 18.62 M106.21 41.98 C107.89 38.3, 109.37 38.37, 116.06 30.66 M106.21 41.98 C108.57 39.3, 111.81 35.56, 116.06 30.66" stroke="#b2f2bb" stroke-width="1" fill="none"></path><path d="M10.5 0 C37.77 -0.71, 62.08 0.53, 105.5 0 M10.5 0 C45.01 -1, 77.1 -0.94, 105.5 0 M105.5 0 C114.31 -0.5, 117.32 2.16, 116 10.5 M105.5 0 C114.57 -0.58, 117.09 1.98, 116 10.5 M116 10.5 C116.54 16.57, 115.36 18.77, 116 31.5 M116 10.5 C116.4 17.62, 114.96 22.28, 116 31.5 M116 31.5 C117.99 37.89, 113.26 40, 105.5 42 M116 31.5 C115.48 39, 113.84 41.65, 105.5 42 M105.5 42 C84.29 40.59, 62.22 43.14, 10.5 42 M105.5 42 C66.71 42.58, 30.21 42.8, 10.5 42 M10.5 42 C3.49 40.64, 1.86 37.67, 0 31.5 M10.5 42 C1.21 42.33, 2 38.41, 0 31.5 M0 31.5 C-0.76 26.26, 0.08 18.59, 0 10.5 M0 31.5 C-0.77 24.02, 0.47 16.76, 0 10.5 M0 10.5 C1.38 2.38, 4.59 -1.16, 10.5 0 M0 10.5 C-0.38 5.37, 1.54 -1.46, 10.5 0" stroke="#1e1e1e" stroke-width="2" fill="none"></path></g><g stroke-linecap="round" transform="translate(137.94070083650695 577.8333435058585) rotate(0 60.99999999999994 24)"><path d="M3.19 2.78 C3.19 2.78, 3.19 2.78, 3.19 2.78 M3.19 2.78 C3.19 2.78, 3.19 2.78, 3.19 2.78 M0.05 18.59 C6.85 14.16, 10.18 6.83, 15.79 0.48 M0.05 18.59 C5.75 12.86, 11.64 5.94, 15.79 0.48 M0.18 30.63 C6.16 24.31, 15.59 13.03, 26.42 0.44 M0.18 30.63 C9.44 19.85, 18.62 9.34, 26.42 0.44 M1.63 41.16 C6.92 34.63, 17.62 23.88, 37.05 0.41 M1.63 41.16 C11.24 29.07, 23.27 16.49, 37.05 0.41 M7.01 47.17 C24.18 29.65, 39.13 9.84, 47.68 0.37 M7.01 47.17 C16.59 35.77, 26.43 24.36, 47.68 0.37 M17.64 47.13 C30.85 30.53, 43.4 17.9, 58.31 0.34 M17.64 47.13 C32.63 29.4, 48.05 12.04, 58.31 0.34 M27.61 47.85 C40.92 34.59, 53.56 21.3, 68.94 0.31 M27.61 47.85 C41.26 33.47, 53.37 18.86, 68.94 0.31 M38.24 47.82 C49.58 34.5, 60.22 23.01, 79.57 0.27 M38.24 47.82 C50.17 33.67, 64.25 18.57, 79.57 0.27 M48.87 47.78 C62.1 35.19, 71.76 23.55, 89.55 0.99 M48.87 47.78 C60.33 34.7, 71.76 21.26, 89.55 0.99 M59.5 47.75 C75.92 31.19, 90.64 13.43, 100.18 0.96 M59.5 47.75 C72.41 32.82, 86.19 17, 100.18 0.96 M70.13 47.71 C78.66 34.32, 89.38 24.52, 110.81 0.92 M70.13 47.71 C83.63 31.5, 98.04 13.25, 110.81 0.92 M80.76 47.68 C93.77 33.69, 107.5 16.7, 119.47 3.15 M80.76 47.68 C94.45 32.72, 108.07 15.87, 119.47 3.15 M91.39 47.65 C98.4 37.4, 107.89 29.85, 122.23 12.17 M91.39 47.65 C97.31 39.38, 104.34 31.59, 122.23 12.17 M101.37 48.37 C105.29 44.06, 111.27 38.19, 121.7 24.97 M101.37 48.37 C109.99 38.69, 117.55 30.62, 121.7 24.97 M112 48.33 C115.44 43.77, 119.2 38.87, 121.84 37.01 M112 48.33 C113.62 45.11, 115.85 43.19, 121.84 37.01" stroke="#b2f2bb" stroke-width="1" fill="none"></path><path d="M12 0 C31.9 0.39, 52.3 0.92, 110 0 M12 0 C41.18 0.04, 72.22 0.7, 110 0 M110 0 C119.32 -1.34, 123.8 3.5, 122 12 M110 0 C119.09 -1.52, 120.06 3.22, 122 12 M122 12 C121.51 18.06, 122.08 25.19, 122 36 M122 12 C121.12 17.76, 123.1 24.88, 122 36 M122 36 C122.76 42, 117.55 48.44, 110 48 M122 36 C123.34 43.65, 116.19 49.23, 110 48 M110 48 C86.71 49.51, 67.84 46.33, 12 48 M110 48 C79.78 49.13, 48.75 47.77, 12 48 M12 48 C5.86 47.17, -1.99 44.29, 0 36 M12 48 C6 47.91, 0.55 41.93, 0 36 M0 36 C0.01 29.31, 1.3 22.42, 0 12 M0 36 C0.75 29.04, 0.84 20.8, 0 12 M0 12 C1.09 2.84, 3.67 1.62, 12 0 M0 12 C-1.96 2.54, 4.46 1.99, 12 0" stroke="#1e1e1e" stroke-width="2" fill="none"></path></g><g stroke-linecap="round"><g transform="translate(249.94070083650672 625.8333435058585) rotate(0 746.4999999999999 42)"><path d="M-0.25 0.64 C84.59 14.61, 259 71.02, 508.06 84.03 C757.13 97.04, 1330.1 79.57, 1494.16 78.7 M1.82 -0.07 C86.59 14.09, 258.45 72.34, 507.15 85.59 C755.84 98.83, 1329.79 80.45, 1494 79.4" stroke="#1e1e1e" stroke-width="2" fill="none"></path></g><g transform="translate(249.94070083650672 625.8333435058585) rotate(0 746.4999999999999 42)"><path d="M1.61 -0.19 L12.34 -2.56 L13.53 9.49 L0.23 -1.17" stroke="none" stroke-width="0" fill="#1e1e1e" fill-rule="evenodd"></path><path d="M-0.25 0.64 C3.71 -0.01, 6.12 0.6, 14.34 -2.85 M-0.25 0.64 C3.4 -0.12, 6.17 -1.15, 14.34 -2.85 M14.34 -2.85 C12.48 0.94, 11.89 6.67, 11.8 9.57 M14.34 -2.85 C13.34 1.25, 12.6 5.19, 11.8 9.57 M11.8 9.57 C6.32 7.86, 2.96 3.86, -0.25 0.64 M11.8 9.57 C9.85 7.69, 6.41 6.42, -0.25 0.64 M-0.25 0.64 C-0.25 0.64, -0.25 0.64, -0.25 0.64 M-0.25 0.64 C-0.25 0.64, -0.25 0.64, -0.25 0.64" stroke="#1e1e1e" stroke-width="2" fill="none"></path></g><g transform="translate(249.94070083650672 625.8333435058585) rotate(0 746.4999999999999 42)"><path d="M1495.86 78.57 L1478.52 86.27 L1482.02 73.23 L1494.48 77.6" stroke="none" stroke-width="0" fill="#1e1e1e" fill-rule="evenodd"></path><path d="M1494 79.4 C1491.87 80.88, 1488.19 83.68, 1480.52 85.98 M1494 79.4 C1491.91 80.42, 1489 81.44, 1480.52 85.98 M1480.52 85.98 C1479.62 79.97, 1479.94 75.91, 1480.29 73.31 M1480.52 85.98 C1480.1 81.8, 1480.11 77.45, 1480.29 73.31 M1480.29 73.31 C1483.82 77.04, 1489.34 78.22, 1494 79.4 M1480.29 73.31 C1483.45 74.38, 1485.17 76.12, 1494 79.4 M1494 79.4 C1494 79.4, 1494 79.4, 1494 79.4 M1494 79.4 C1494 79.4, 1494 79.4, 1494 79.4" stroke="#1e1e1e" stroke-width="2" fill="none"></path></g></g><mask></mask><g transform="translate(1251.0293798322748 743.1666768391924) rotate(0 61.57798767089844 22.5)"><text x="61.57798767089844" y="0" font-family="Virgil, Segoe UI Emoji" font-size="36px" fill="#1971c2" text-anchor="middle" style="white-space: pre;" direction="ltr" dominant-baseline="text-before-edge">MATCH</text></g><g stroke-linecap="round"><g transform="translate(308.29855778761976 1081.3333435058585) rotate(0 715.3210715244434 65.25)"><path d="M1.16 -1.17 C105.66 20.39, 388.64 125.41, 627.07 129.41 C865.49 133.4, 1297.66 40.64, 1431.73 22.78 M0.3 0.83 C104.59 22.5, 387.28 126.52, 625.82 130.37 C864.35 134.22, 1297.15 41.84, 1431.53 23.94" stroke="#1e1e1e" stroke-width="2" fill="none"></path></g><g transform="translate(308.29855778761976 1081.3333435058585) rotate(0 715.3210715244434 65.25)"><path d="M2.89 -1.25 L16.39 -5.71 L12.9 7.42 L2.72 -1.27" stroke="none" stroke-width="0" fill="#1e1e1e" fill-rule="evenodd"></path><path d="M1.16 -1.17 C4.2 -2.87, 8.79 -1.63, 15.9 -3.91 M1.16 -1.17 C5.87 -2.01, 9.6 -3.07, 15.9 -3.91 M15.9 -3.91 C15.56 -0.29, 14.13 0.88, 12.73 8.37 M15.9 -3.91 C15.2 0.29, 13.34 2.93, 12.73 8.37 M12.73 8.37 C6.64 4.26, 3.84 1.67, 1.16 -1.17 M12.73 8.37 C8.95 5.65, 5.96 2.54, 1.16 -1.17 M1.16 -1.17 C1.16 -1.17, 1.16 -1.17, 1.16 -1.17 M1.16 -1.17 C1.16 -1.17, 1.16 -1.17, 1.16 -1.17" stroke="#1e1e1e" stroke-width="2" fill="none"></path></g><g transform="translate(308.29855778761976 1081.3333435058585) rotate(0 715.3210715244434 65.25)"><path d="M1433.26 23.87 L1419.65 30.64 L1417.24 19 L1433.1 23.84" stroke="none" stroke-width="0" fill="#1e1e1e" fill-rule="evenodd"></path><path d="M1431.53 23.94 C1426.3 25.94, 1422.62 30.61, 1419.17 32.45 M1431.53 23.94 C1428.86 26.01, 1425.14 28.04, 1419.17 32.45 M1419.17 32.45 C1419.15 30.72, 1417.95 26.55, 1417.07 19.94 M1419.17 32.45 C1418.86 29.2, 1417.32 24.4, 1417.07 19.94 M1417.07 19.94 C1421.34 21.15, 1428.94 23.96, 1431.53 23.94 M1417.07 19.94 C1420.59 20.94, 1425.01 21.68, 1431.53 23.94 M1431.53 23.94 C1431.53 23.94, 1431.53 23.94, 1431.53 23.94 M1431.53 23.94 C1431.53 23.94, 1431.53 23.94, 1431.53 23.94" stroke="#1e1e1e" stroke-width="2" fill="none"></path></g></g><mask></mask><g transform="translate(1238.702724762288 1112.6666768391906) rotate(0 95.23797607421875 22.5)"><text x="95.23797607421875" y="0" font-family="Virgil, Segoe UI Emoji" font-size="36px" fill="#e03131" text-anchor="middle" style="white-space: pre;" direction="ltr" dominant-baseline="text-before-edge">NO MATCH</text></g><g stroke-linecap="round" transform="translate(1744.9407008365063 1084.8333435058585) rotate(0 42 21)"><path d="M2.79 2.43 C2.79 2.43, 2.79 2.43, 2.79 2.43 M2.79 2.43 C2.79 2.43, 2.79 2.43, 2.79 2.43 M0.96 16.73 C5.73 10.67, 9.87 6.4, 14.74 0.89 M0.96 16.73 C3.47 12.97, 7.78 8.28, 14.74 0.89 M1.09 28.78 C7.54 17.24, 17.66 10.36, 25.37 0.85 M1.09 28.78 C5.52 22.75, 11.35 16.21, 25.37 0.85 M3.19 38.55 C9.34 32.09, 18.71 24.07, 36 0.82 M3.19 38.55 C15.4 23.11, 27.68 9.96, 36 0.82 M11.2 41.54 C19.72 31.22, 31.12 21.99, 46.63 0.78 M11.2 41.54 C23.84 28.18, 35.13 14.08, 46.63 0.78 M21.83 41.5 C30.84 31.45, 38.46 21.6, 57.26 0.75 M21.83 41.5 C34.67 27.22, 45.34 13.58, 57.26 0.75 M32.46 41.47 C45.67 25.13, 57.47 9.55, 67.89 0.71 M32.46 41.47 C43.81 28.19, 56.38 14.38, 67.89 0.71 M43.09 41.43 C51.42 30.27, 59.74 20.72, 78.52 0.68 M43.09 41.43 C57.72 25.09, 71.31 8.2, 78.52 0.68 M53.06 42.15 C62.19 34.71, 70.37 23.31, 83.9 6.68 M53.06 42.15 C65.08 28.11, 78.41 14.68, 83.9 6.68 M63.69 42.12 C70.18 34.04, 76.74 29.51, 84.03 18.72 M63.69 42.12 C68.75 38.06, 72.85 33.49, 84.03 18.72 M74.32 42.08 C75.32 40.22, 79.82 35.6, 84.17 30.76 M74.32 42.08 C77.02 39.19, 80.53 35.26, 84.17 30.76" stroke="#ffc9c9" stroke-width="1" fill="none"></path><path d="M10.5 0 C25.87 0.76, 40.91 1.24, 73.5 0 M10.5 0 C26.97 0.08, 44.97 0.72, 73.5 0 M73.5 0 C82.04 -0.57, 83.21 3.51, 84 10.5 M73.5 0 C79.92 -0.58, 85.03 5.37, 84 10.5 M84 10.5 C83.22 15.49, 81.83 18.5, 84 31.5 M84 10.5 C83.34 17.79, 83.37 23.93, 84 31.5 M84 31.5 C83.3 37.28, 82.36 43.97, 73.5 42 M84 31.5 C82.47 38.79, 78.34 43.06, 73.5 42 M73.5 42 C50.67 43.86, 29.72 40, 10.5 42 M73.5 42 C53.93 41.07, 33.96 41.5, 10.5 42 M10.5 42 C5.07 41.9, 0.7 39.69, 0 31.5 M10.5 42 C4.9 42.12, -1.48 38.65, 0 31.5 M0 31.5 C-1.19 25.04, -1.24 16.06, 0 10.5 M0 31.5 C0.38 24.36, 0.18 15.43, 0 10.5 M0 10.5 C-1.83 5.26, 2.76 0.92, 10.5 0 M0 10.5 C-0.67 5.18, 2.2 -0.35, 10.5 0" stroke="#1e1e1e" stroke-width="2" fill="none"></path></g><g transform="translate(62.77403416983998 10) rotate(0 222.85791015625 22.5)"><text x="0" y="0" font-family="Virgil, Segoe UI Emoji" font-size="36px" fill="#1e1e1e" text-anchor="start" style="white-space: pre;" direction="ltr" dominant-baseline="text-before-edge">HCC_relevant_codes.json</text></g><g stroke-linecap="round" transform="translate(1142.944556767458 585.0737449715043) rotate(0 189.99999999999977 339.99999999999955)"><path d="M105.34 35.92 C105.34 35.92, 105.34 35.92, 105.34 35.92 M105.34 35.92 C105.34 35.92, 105.34 35.92, 105.34 35.92 M52.99 108.34 C76.77 78.96, 100.17 53.85, 128.43 21.55 M52.99 108.34 C81.25 75.45, 109.66 43.15, 128.43 21.55 M36.72 139.25 C71.5 101.66, 105.24 64.09, 149.56 9.44 M36.72 139.25 C72.69 99.61, 106.46 60.08, 149.56 9.44 M30.95 158.08 C65.86 118.96, 99.46 80.99, 162.82 6.38 M30.95 158.08 C70.21 112.3, 111.96 65.26, 162.82 6.38 M25.18 176.91 C68.55 129.86, 108.3 83.68, 176.07 3.33 M25.18 176.91 C69 127.17, 112.91 76.39, 176.07 3.33 M19.41 195.75 C81.84 125.16, 143.91 53.1, 189.32 0.28 M19.41 195.75 C73.46 131.21, 129.4 66.89, 189.32 0.28 M14.29 213.82 C60.29 156.61, 108.41 103.18, 198.64 1.75 M14.29 213.82 C78.26 137.8, 143.83 61.09, 198.64 1.75 M11.8 228.88 C79.09 152.17, 147.76 72.3, 207.96 3.23 M11.8 228.88 C79.44 150.89, 148.08 71.06, 207.96 3.23 M9.31 243.94 C65.17 179.19, 121.57 116.68, 216.62 5.46 M9.31 243.94 C54.84 190.32, 101.65 136.68, 216.62 5.46 M6.82 259 C63.62 195.49, 121.35 129.77, 225.28 7.69 M6.82 259 C91.09 161.83, 174.48 66.33, 225.28 7.69 M4.33 274.06 C87.12 180.05, 169.49 84.79, 234.6 9.16 M4.33 274.06 C55.27 213.31, 108.3 152.85, 234.6 9.16 M3.15 287.61 C78.76 198.81, 154.86 110.6, 241.3 13.65 M3.15 287.61 C80.19 199.25, 157.26 111.1, 241.3 13.65 M2.62 300.41 C62.96 227.49, 125.51 158.15, 247.99 18.15 M2.62 300.41 C75.05 217.97, 146.33 136.86, 247.99 18.15 M2.1 313.2 C82.66 222.91, 159.5 133.65, 254.68 22.64 M2.1 313.2 C93.83 207.68, 185.37 102.7, 254.68 22.64 M1.58 326 C86.41 226.88, 172.51 129.65, 261.38 27.14 M1.58 326 C81.62 234.05, 162.21 141.94, 261.38 27.14 M1.06 338.8 C98.25 227.64, 195.89 116.5, 268.07 31.63 M1.06 338.8 C100.69 224.71, 200.62 110.25, 268.07 31.63 M0.53 351.59 C67.33 274.48, 133.22 197.63, 274.77 36.12 M0.53 351.59 C109.4 229.24, 216.86 105.08, 274.77 36.12 M0.67 363.63 C103.62 243.84, 207.85 124.66, 280.15 42.13 M0.67 363.63 C94.41 256.85, 187.36 149.55, 280.15 42.13 M2.11 374.16 C80.88 281.38, 161.98 187.45, 285.53 48.13 M2.11 374.16 C67.33 299.01, 132.31 224.72, 285.53 48.13 M2.9 385.45 C60.11 319.55, 118.2 252.27, 290.91 54.13 M2.9 385.45 C89.39 287.98, 175.39 189.61, 290.91 54.13 M3.69 396.74 C68.02 323.64, 131.08 249.96, 296.29 60.14 M3.69 396.74 C88.08 298.37, 174.13 199.02, 296.29 60.14 M5.13 407.27 C81.54 317.54, 158.09 229.52, 301.02 66.89 M5.13 407.27 C70.63 331.8, 135.44 256.88, 301.02 66.89 M5.92 418.55 C84.96 327.74, 163.08 238.45, 306.4 72.9 M5.92 418.55 C86.59 327.25, 166.22 236.57, 306.4 72.9 M6.71 429.84 C106.81 317.98, 204.87 202.48, 311.78 78.9 M6.71 429.84 C108.87 311.64, 211.65 192.95, 311.78 78.9 M8.16 440.37 C98.32 337.53, 188.45 233.11, 315.85 86.41 M8.16 440.37 C71.31 369.79, 132.66 298.24, 315.85 86.41 M10.92 449.39 C113.84 330.72, 215.42 213.49, 319.92 93.92 M10.92 449.39 C131.13 310.06, 251.56 171.61, 319.92 93.92 M13.02 459.17 C93.06 364.28, 174.66 271.98, 323.99 101.44 M13.02 459.17 C125.24 330.61, 235.87 203.64, 323.99 101.44 M15.77 468.19 C130.42 336.43, 245.97 203.64, 328.06 108.95 M15.77 468.19 C139.63 326.73, 262.18 184.54, 328.06 108.95 M17.88 477.97 C129.28 349.31, 239.25 221.3, 332.13 116.46 M17.88 477.97 C134.28 342.83, 251.51 207.68, 332.13 116.46 M20.63 486.99 C114.14 380.61, 207.93 273.98, 336.2 123.98 M20.63 486.99 C105.54 390.21, 189.63 293.59, 336.2 123.98 M22.73 496.77 C94.27 412.17, 168.34 327.39, 340.27 131.49 M22.73 496.77 C115.35 390.95, 205.93 286.36, 340.27 131.49 M25.49 505.79 C128.27 387.89, 229.84 271.12, 343.68 139.76 M25.49 505.79 C91.4 428.53, 158.56 352.09, 343.68 139.76 M28.25 514.81 C94.23 437.05, 162.05 359.29, 346.44 148.78 M28.25 514.81 C131.39 398.37, 232.65 281.59, 346.44 148.78 M31.66 523.08 C100.55 444.81, 167.92 366.49, 349.2 157.8 M31.66 523.08 C133.76 406.3, 235.57 288.98, 349.2 157.8 M35.08 531.35 C121.41 430.9, 206.92 333.09, 352.61 166.07 M35.08 531.35 C126.25 426.76, 217.45 322.39, 352.61 166.07 M38.49 539.61 C138.1 425.97, 237.65 310.95, 355.37 175.09 M38.49 539.61 C158.62 399.69, 279.42 259.99, 355.37 175.09 M41.9 547.88 C119.38 458.79, 196.25 370.88, 358.12 184.11 M41.9 547.88 C165.06 403.8, 290.51 260.38, 358.12 184.11 M45.32 556.15 C140.11 445.57, 236.05 336.38, 360.88 193.13 M45.32 556.15 C130.63 457.52, 215.31 359.01, 360.88 193.13 M48.73 564.42 C120.19 480.63, 191.82 398.88, 363.64 202.15 M48.73 564.42 C123.46 476.26, 199.17 389.47, 363.64 202.15 M52.14 572.68 C125.85 487.56, 198.99 403.19, 365.74 211.93 M52.14 572.68 C164.66 444.45, 275.08 316.85, 365.74 211.93 M56.87 579.44 C172.82 444.72, 288.18 309.91, 367.18 222.46 M56.87 579.44 C122.45 504.26, 187.45 429.01, 367.18 222.46 M60.94 586.95 C156.99 474.86, 256.07 362.5, 369.29 232.24 M60.94 586.95 C148.4 483.44, 237.63 380.38, 369.29 232.24 M65.66 593.71 C157.15 490.1, 248.49 383.6, 371.39 242.02 M65.66 593.71 C151.84 493.67, 237.93 394.58, 371.39 242.02 M70.39 600.47 C165.93 489.9, 263.21 379.42, 372.83 252.55 M70.39 600.47 C138.19 522.76, 205.69 444.87, 372.83 252.55 M75.11 607.23 C158.87 512.41, 241.82 418.55, 374.93 262.32 M75.11 607.23 C143.05 530.39, 210.17 453.55, 374.93 262.32 M79.84 613.98 C189.94 487.85, 298.56 362.81, 376.38 272.86 M79.84 613.98 C195.5 477.3, 313.31 342.54, 376.38 272.86 M84.57 620.74 C153.94 542.32, 223.08 462.67, 378.48 282.63 M84.57 620.74 C199.77 486.72, 315.93 354.47, 378.48 282.63 M89.95 626.75 C188.89 509.86, 290.27 393.36, 378.61 294.67 M89.95 626.75 C186.03 515.13, 282.87 403.83, 378.61 294.67 M95.99 631.99 C198.8 511.38, 304.48 392.1, 378.75 306.71 M95.99 631.99 C193.31 521.32, 289.44 410.14, 378.75 306.71 M102.02 637.24 C186.91 535.69, 274.28 435.76, 378.88 318.76 M102.02 637.24 C174.79 553.08, 246.67 469.73, 378.88 318.76 M108.06 642.49 C198.25 538.96, 288.6 433.93, 379.01 330.8 M108.06 642.49 C164 579.12, 220.63 514.54, 379.01 330.8 M114.1 647.74 C183.19 566.66, 253.95 485.28, 378.49 343.59 M114.1 647.74 C187.71 561.75, 263.16 475.48, 378.49 343.59 M119.48 653.74 C180.64 586.82, 238.7 518.87, 378.62 355.63 M119.48 653.74 C204.16 555.74, 288.1 459.08, 378.62 355.63 M125.52 658.99 C219.62 551.63, 313.68 442.56, 378.76 367.67 M125.52 658.99 C177.7 597.23, 230.73 537.18, 378.76 367.67 M132.87 662.73 C192.11 594.92, 250.55 527.33, 377.58 381.22 M132.87 662.73 C185.62 603.15, 237.07 543.28, 377.58 381.22 M140.87 665.71 C224.93 570.87, 308.54 473.57, 376.4 394.77 M140.87 665.71 C215.21 580.5, 290.5 493.77, 376.4 394.77 M148.22 669.45 C235.96 569.13, 322.48 470.94, 375.22 408.32 M148.22 669.45 C233.45 570.57, 319.18 471.46, 375.22 408.32 M155.57 673.19 C218.2 599.2, 283.88 526.77, 373.38 422.63 M155.57 673.19 C199.71 622.85, 244.94 571.7, 373.38 422.63 M162.92 676.93 C236.36 591.76, 310.95 506.23, 372.21 436.18 M162.92 676.93 C232.73 597.82, 302.87 517.49, 372.21 436.18 M172.24 678.41 C217.65 622.47, 265.82 569.03, 368.4 452.75 M172.24 678.41 C236.77 602.71, 302.85 527.32, 368.4 452.75 M182.87 678.37 C235.86 618.03, 290.67 557.56, 363.94 470.07 M182.87 678.37 C250.03 601.4, 315.04 525.96, 363.94 470.07 M193.5 678.34 C224.7 637.54, 258.03 601.23, 360.14 486.64 M193.5 678.34 C236.86 627.51, 282.71 574.72, 360.14 486.64 M204.79 677.55 C239.5 638.06, 271.9 600.93, 355.68 503.97 M204.79 677.55 C258.99 614.82, 312.65 554.26, 355.68 503.97 M217.39 675.25 C259.86 625.48, 300.33 576.07, 347.94 525.06 M217.39 675.25 C253.04 635.95, 287.85 593.51, 347.94 525.06 M234.58 667.67 C277.25 620.57, 315.9 573.11, 338.89 547.67 M234.58 667.67 C275.09 620.52, 315.91 575.52, 338.89 547.67 M251.11 660.84 C279.98 630.22, 304.75 598.37, 330.49 569.52 M251.11 660.84 C274.46 634.84, 296.77 608.81, 330.49 569.52" stroke="#a5d8ff" stroke-width="1" fill="none"></path><path d="M234.18 9.32 C248.55 10.05, 263.19 25.74, 276.22 37.52 C289.26 49.3, 301.3 63.28, 312.4 79.99 C323.5 96.7, 334.16 116.59, 342.84 137.76 C351.52 158.92, 358.63 183.06, 364.49 206.98 C370.36 230.89, 375.67 255.4, 378.05 281.25 C380.44 307.1, 379.9 335.75, 378.8 362.06 C377.71 388.38, 375.78 414.33, 371.51 439.14 C367.24 463.94, 360.44 488.28, 353.18 510.9 C345.92 533.52, 337.84 556, 327.92 574.85 C318 593.7, 305.83 609.93, 293.65 623.99 C281.46 638.05, 268.57 650.27, 254.83 659.19 C241.1 668.11, 225.95 674.29, 211.25 677.5 C196.54 680.72, 180.93 681.66, 166.61 678.48 C152.29 675.29, 138.9 667.73, 125.32 658.38 C111.74 649.04, 97.37 636.68, 85.11 622.41 C72.85 608.14, 61.65 591.71, 51.76 572.78 C41.87 553.86, 33.22 531.47, 25.77 508.87 C18.33 486.27, 11.42 462.43, 7.1 437.2 C2.78 411.97, 0.52 383.58, -0.13 357.47 C-0.79 331.37, 0.5 306.06, 3.16 280.55 C5.81 255.03, 10.13 228.47, 15.79 204.38 C21.45 180.29, 28.44 156.82, 37.13 136.01 C45.82 115.19, 56.59 96.17, 67.96 79.49 C79.32 62.82, 92.07 47.61, 105.33 35.94 C118.58 24.27, 133.24 15.57, 147.48 9.47 C161.73 3.38, 174.75 -1.46, 190.78 -0.64 C206.81 0.18, 233.53 9.96, 243.68 14.41 C253.82 18.86, 252.67 20.64, 251.67 26.07 M134.19 13.35 C146.69 0.96, 164.42 3.26, 179.21 1.88 C194.01 0.49, 208.86 0.52, 222.96 5.06 C237.07 9.6, 250.53 18.62, 263.85 29.1 C277.17 39.58, 291 52.36, 302.88 67.93 C314.75 83.49, 325.74 102.63, 335.08 122.5 C344.43 142.36, 352.5 163.73, 358.93 187.12 C365.35 210.51, 370.2 237.22, 373.65 262.85 C377.09 288.47, 379.28 314.85, 379.62 340.87 C379.96 366.88, 379.05 393.44, 375.7 418.94 C372.34 444.44, 366 470.37, 359.49 493.87 C352.98 517.36, 346.04 540.01, 336.63 559.9 C327.22 579.79, 314.79 597.64, 303.03 613.21 C291.27 628.77, 279.27 642.93, 266.07 653.27 C252.86 663.62, 238.12 670.75, 223.79 675.27 C209.46 679.79, 194.74 682.08, 180.08 680.4 C165.41 678.72, 149.98 672.8, 135.8 665.17 C121.62 657.55, 107.8 647.41, 94.99 634.64 C82.18 621.87, 69.37 606.75, 58.96 588.57 C48.54 570.4, 40.32 547.65, 32.5 525.59 C24.68 503.54, 17.32 480.51, 12.04 456.26 C6.77 432.01, 2.82 405.86, 0.86 380.09 C-1.09 354.31, -1.22 327.9, 0.3 301.6 C1.83 275.3, 4.86 246.96, 10.02 222.3 C15.18 197.64, 23.23 175.01, 31.27 153.64 C39.3 132.27, 47.38 112.17, 58.21 94.07 C69.05 75.96, 83.4 58.2, 96.27 45 C109.15 31.81, 128.94 19.14, 135.48 14.89 C142.01 10.64, 134.61 14.05, 135.49 19.51" stroke="#1e1e1e" stroke-width="2" fill="none"></path></g><g transform="translate(1213.4525676317148 461.0737449715043) rotate(0 110.1419677734375 45)"><text x="110.1419677734375" y="0" font-family="Virgil, Segoe UI Emoji" font-size="36px" fill="#1e1e1e" text-anchor="middle" style="white-space: pre;" direction="ltr" dominant-baseline="text-before-edge">Pure REGEX</text><text x="110.1419677734375" y="45" font-family="Virgil, Segoe UI Emoji" font-size="36px" fill="#1e1e1e" text-anchor="middle" style="white-space: pre;" direction="ltr" dominant-baseline="text-before-edge">O(1) search</text></g><g mask="url(#mask-rkiQOLceXCecBvEKGklM9)" stroke-linecap="round"><g transform="translate(1353.7778901007907 1475.9070783048383) rotate(0 -2.5 -103.75)"><path d="M-1.01 -0.41 C-1.97 -34.8, -4.67 -172.56, -5.18 -207.14 M0.66 -1.67 C-0.52 -36.36, -5.38 -174.9, -6.22 -209.07" stroke="#1e1e1e" stroke-width="2" fill="none"></path></g><g transform="translate(1353.7778901007907 1475.9070783048383) rotate(0 -2.5 -103.75)"><path d="M-2.3 -0.28 L-6.44 -13.15 L6.42 -15.25 L0.08 -1.57" stroke="none" stroke-width="0" fill="#1e1e1e" fill-rule="evenodd"></path><path d="M-1.01 -0.41 C-3.74 -5.36, -5.07 -8.66, -7.64 -13.87 M-1.01 -0.41 C-2.95 -4.25, -4.22 -7.11, -7.64 -13.87 M-7.64 -13.87 C-5.47 -13.56, -3.8 -14.39, 5.04 -14.13 M-7.64 -13.87 C-4.06 -13.6, 0.05 -14.08, 5.04 -14.13 M5.04 -14.13 C4.83 -11.44, 1.93 -8.21, -1.01 -0.41 M5.04 -14.13 C3 -9.85, 1.61 -4.9, -1.01 -0.41 M-1.01 -0.41 C-1.01 -0.41, -1.01 -0.41, -1.01 -0.41 M-1.01 -0.41 C-1.01 -0.41, -1.01 -0.41, -1.01 -0.41" stroke="#1e1e1e" stroke-width="2" fill="none"></path></g></g><mask id="mask-rkiQOLceXCecBvEKGklM9"><rect x="0" y="0" fill="#fff" width="1458.7778901007907" height="1783.4070783048383"></rect><rect x="1282.9139145758882" y="1349.6570783048383" fill="#000" width="136.7279510498047" height="45" opacity="1"></rect></mask><g transform="translate(1282.9139145758884 1349.6570783048383) rotate(0 68.08362834720867 21.511639957507214)"><text x="68.36397552490234" y="0" font-family="Virgil, Segoe UI Emoji" font-size="36px" fill="#1e1e1e" text-anchor="middle" style="white-space: pre;" direction="ltr" dominant-baseline="text-before-edge">Returns</text></g><g transform="translate(1027.7494070278742 1533.2959180265198) rotate(0 413.4238586425781 22.5)"><text x="0" y="0" font-family="Virgil, Segoe UI Emoji" font-size="36px" fill="#1e1e1e" text-anchor="start" style="white-space: pre;" direction="ltr" dominant-baseline="text-before-edge">CODES: E1165, J449, I10, I5022, N184, E6601</text></g><g transform="translate(1036.4445567674575 1604.9625846931876) rotate(0 236.7719268798828 22.5)"><text x="0" y="0" font-family="Virgil, Segoe UI Emoji" font-size="36px" fill="#1e1e1e" text-anchor="start" style="white-space: pre;" direction="ltr" dominant-baseline="text-before-edge">HCC_relevant codes: J449</text></g><g transform="translate(1255.817217086467 886.6759232873478) rotate(0 89.42396545410156 45)"><text x="89.42396545410156" y="0" font-family="Virgil, Segoe UI Emoji" font-size="36px" fill="#1e1e1e" text-anchor="middle" style="white-space: pre;" direction="ltr" dominant-baseline="text-before-edge">Seaching</text><text x="89.42396545410156" y="45" font-family="Virgil, Segoe UI Emoji" font-size="36px" fill="#1e1e1e" text-anchor="middle" style="white-space: pre;" direction="ltr" dominant-baseline="text-before-edge">only codes</text></g></svg>